<?xml version="1.0" encoding="UTF-8" standalone="no"?>
<!DOCTYPE svg PUBLIC "-//W3C//DTD SVG 1.1//EN" "http://www.w3.org/Graphics/SVG/1.1/DTD/svg11.dtd">
<svg width="100%" height="100%" viewBox="0 0 64 64" version="1.1" xmlns="http://www.w3.org/2000/svg" xmlns:xlink="http://www.w3.org/1999/xlink" xml:space="preserve" xmlns:serif="http://www.serif.com/" style="fill-rule:evenodd;clip-rule:evenodd;stroke-miterlimit:10;">
    <g transform="matrix(1.79474e-17,0.293103,-0.693548,4.24676e-17,58.6935,20.1207)">
        <path d="M32,63L41,63C34,63 34,44 34,44L34,38C34,45.671 40,51 47,51C55.334,51 61,43.671 61,36C61,17.48 32,1 32,1C32,1 3,17.48 3,36C3,43.671 9.667,51 18,51C25,51 29.395,45.13 30,38L30,44C30,44 30,63 23,63L32,63" style="fill:none;fill-rule:nonzero;stroke:black;stroke-width:2px;"/>
    </g>
    <g transform="matrix(1,0,0,1,-7.5,3)">
        <rect x="2" y="17" width="11" height="1" style="fill:none;stroke:black;stroke-width:2px;stroke-linecap:round;stroke-linejoin:round;stroke-miterlimit:1.5;"/>
    </g>
    <g transform="matrix(1,0,0,2e-06,1,24)">
        <rect x="2" y="17" width="11" height="1" style="fill:none;stroke:black;stroke-width:2.83px;stroke-linecap:round;stroke-linejoin:round;stroke-miterlimit:1.5;"/>
    </g>
    <g transform="matrix(1,0,0,0.5,-2,21)">
        <rect x="2" y="17" width="11" height="1" style="fill:none;stroke:black;stroke-width:2.53px;stroke-linecap:round;stroke-linejoin:round;stroke-miterlimit:1.5;"/>
    </g>
    <g transform="matrix(1,0,0,2e-06,-3.5,36)">
        <rect x="2" y="17" width="11" height="1" style="fill:none;stroke:black;stroke-width:2.83px;stroke-linecap:round;stroke-linejoin:round;stroke-miterlimit:1.5;"/>
    </g>
    <g transform="matrix(1,0,0,1.39286,4,-14.9643)">
        <ellipse cx="65" cy="33" rx="8" ry="28" style="fill:none;stroke:black;stroke-width:1.65px;stroke-linecap:round;stroke-linejoin:round;stroke-miterlimit:1.5;"/>
    </g>
</svg>
